<svg width="64" height="64" viewBox="0 0 64 64" fill="none" xmlns="http://www.w3.org/2000/svg">
<circle cx="32" cy="32" r="31" fill="#FCFCFC" stroke="#1C1C1C" stroke-width="2"/>
<circle cx="31.9995" cy="32.0002" r="26.7221" fill="#FCFCFC" stroke="#1C1C1C" stroke-width="2"/>
<mask id="path-3-inside-1_53_37" fill="white">
<path d="M56.8921 44.2017C55.5744 46.8899 53.83 49.3469 51.7267 51.4773L31.9995 32.0002L56.8921 44.2017Z"/>
</mask>
<path d="M56.8921 44.2017C55.5744 46.8899 53.83 49.3469 51.7267 51.4773L31.9995 32.0002L56.8921 44.2017Z" fill="#FCFCFC" stroke="#FCFCFC" stroke-width="4" mask="url(#path-3-inside-1_53_37)"/>
<mask id="path-4-inside-2_53_37" fill="white">
<path d="M6.98577 20.0498C8.27628 17.3485 9.99584 14.874 12.0776 12.7226L32 31.9999L6.98577 20.0498Z"/>
</mask>
<path d="M6.98577 20.0498C8.27628 17.3485 9.99584 14.874 12.0776 12.7226L32 31.9999L6.98577 20.0498Z" fill="#FCFCFC" stroke="#FCFCFC" stroke-width="4" mask="url(#path-4-inside-2_53_37)"/>
<path d="M31.0115 26.06C31.4645 26.6825 31.691 27.425 31.691 28.2935C31.691 29.186 31.4645 29.906 31.0055 30.449C30.7475 30.7505 30.371 31.0295 29.873 31.28C30.629 31.553 31.199 31.9835 31.5875 32.5715C31.9715 33.1595 32.165 33.875 32.165 34.715C32.165 35.582 31.9445 36.3605 31.5035 37.0475C31.2245 37.502 30.8735 37.8875 30.4535 38.198C29.9571 38.5655 29.3845 38.8167 28.778 38.933C28.133 39.065 27.4355 39.1295 26.6825 39.1295H20V24.5H27.167C28.976 24.527 30.2555 25.046 31.0115 26.06ZM22.9565 27.041V30.269H26.5625C27.2045 30.269 27.728 30.1475 28.1315 29.906C28.532 29.6645 28.7345 29.2355 28.7345 28.622C28.7345 27.938 28.469 27.4895 27.938 27.269C27.479 27.1175 26.894 27.041 26.1845 27.041H22.9565ZM22.9565 32.69V36.5915H26.558C27.2015 36.5915 27.704 36.506 28.061 36.3335C28.712 36.0125 29.036 35.4065 29.036 34.5065C29.036 33.743 28.7225 33.221 28.0925 32.936C27.7385 32.7785 27.2435 32.6945 26.6075 32.69H22.9565ZM41.1305 28.532C41.897 28.8695 42.527 29.4035 43.0235 30.1325C43.4765 30.776 43.7675 31.5215 43.8995 32.369C43.9775 32.864 44.0075 33.5825 43.9955 34.517H36.005C36.053 35.6015 36.431 36.3635 37.154 36.7985C37.592 37.07 38.117 37.2065 38.7365 37.2065C39.3875 37.2065 39.9185 37.0415 40.3265 36.7115C40.5515 36.5315 40.748 36.284 40.9175 35.9675H43.8455C43.7675 36.608 43.412 37.2605 42.7835 37.9235C41.801 38.9735 40.4255 39.5 38.657 39.5C37.196 39.5 35.909 39.0575 34.7945 38.1695C33.6755 37.283 33.119 35.8385 33.119 33.839C33.119 31.964 33.623 30.5255 34.6295 29.525C35.639 28.5275 36.944 28.025 38.5505 28.025C39.5075 28.0235 40.367 28.193 41.1305 28.532ZM36.842 30.9755C36.437 31.388 36.182 31.946 36.077 32.6495H41.0195C40.967 31.898 40.7105 31.3295 40.256 30.938C39.7955 30.5495 39.23 30.356 38.5535 30.356C37.82 30.3575 37.247 30.5645 36.842 30.9755ZM35.336 27.0035H41.6915V25.1825H35.336V27.0035Z" fill="black"/>
</svg>
