<svg width="23" height="25" viewBox="0 0 23 25" fill="none" xmlns="http://www.w3.org/2000/svg">
<path d="M22.3502 16.3131L15.4064 12.5L22.3502 8.68686C22.9261 8.37061 23.1296 7.64272 22.801 7.07373L21.8498 5.42622C21.5213 4.85723 20.7893 4.66943 20.2274 5.01006L13.4532 9.11709L13.6229 1.19697C13.637 0.540088 13.1084 0 12.4513 0H10.549C9.89192 0 9.36326 0.540088 9.37737 1.19697L9.547 9.11709L2.77283 5.01011C2.21101 4.66948 1.47893 4.85728 1.15042 5.42627L0.199245 7.07378C-0.12927 7.64277 0.0741475 8.37065 0.650075 8.68691L7.59387 12.5L0.650027 16.3131C0.0740987 16.6294 -0.129319 17.3573 0.199245 17.9263L1.15042 19.5738C1.47893 20.1428 2.21101 20.3306 2.77283 19.9899L9.547 15.8829L9.37732 23.803C9.36326 24.4599 9.89192 25 10.549 25H12.4513C13.1084 25 13.637 24.4599 13.623 23.803L13.4532 15.8829L20.2274 19.9899C20.7892 20.3305 21.5213 20.1427 21.8498 19.5737L22.801 17.9262C23.1295 17.3572 22.9261 16.6294 22.3502 16.3131Z" fill="#3F8E3F"/>
</svg>
