<svg width="64" height="64" viewBox="0 0 64 64" fill="none" xmlns="http://www.w3.org/2000/svg">
<circle cx="32" cy="32" r="31" fill="#FCFCFC" stroke="#1C1C1C" stroke-width="2"/>
<circle cx="31.9995" cy="32.0002" r="26.7221" fill="#FCFCFC" stroke="#1C1C1C" stroke-width="2"/>
<mask id="path-3-inside-1_53_44" fill="white">
<path d="M56.8921 44.2017C55.5744 46.8899 53.83 49.3469 51.7267 51.4773L31.9995 32.0002L56.8921 44.2017Z"/>
</mask>
<path d="M56.8921 44.2017C55.5744 46.8899 53.83 49.3469 51.7267 51.4773L31.9995 32.0002L56.8921 44.2017Z" fill="#FCFCFC" stroke="#FCFCFC" stroke-width="4" mask="url(#path-3-inside-1_53_44)"/>
<mask id="path-4-inside-2_53_44" fill="white">
<path d="M6.98577 20.0498C8.27628 17.3485 9.99584 14.874 12.0776 12.7226L32 31.9999L6.98577 20.0498Z"/>
</mask>
<path d="M6.98577 20.0498C8.27628 17.3485 9.99584 14.874 12.0776 12.7226L32 31.9999L6.98577 20.0498Z" fill="#FCFCFC" stroke="#FCFCFC" stroke-width="4" mask="url(#path-4-inside-2_53_44)"/>
<path d="M32 29.52C31.5095 29.52 31.03 29.6654 30.6222 29.938C30.2144 30.2105 29.8965 30.5978 29.7088 31.0509C29.5211 31.5041 29.472 32.0028 29.5677 32.4838C29.6633 32.9649 29.8995 33.4068 30.2464 33.7536C30.5932 34.1005 31.0351 34.3367 31.5162 34.4323C31.9972 34.528 32.4959 34.4789 32.9491 34.2912C33.4022 34.1035 33.7895 33.7856 34.062 33.3778C34.3346 32.97 34.48 32.4905 34.48 32C34.48 31.6743 34.4159 31.3518 34.2912 31.0509C34.1666 30.7501 33.9839 30.4767 33.7536 30.2464C33.5233 30.0161 33.2499 29.8334 32.9491 29.7088C32.6482 29.5841 32.3257 29.52 32 29.52ZM41.93 27.07C41.9247 26.2978 41.7825 25.5326 41.51 24.81C41.3093 24.2813 40.9987 23.8011 40.5988 23.4012C40.1989 23.0013 39.7187 22.6907 39.19 22.49C38.4674 22.2175 37.7022 22.0753 36.93 22.07C35.64 22 35.26 22 32 22C28.74 22 28.36 22 27.07 22.07C26.2978 22.0753 25.5326 22.2175 24.81 22.49C24.2813 22.6907 23.8011 23.0013 23.4012 23.4012C23.0013 23.8011 22.6907 24.2813 22.49 24.81C22.2175 25.5326 22.0753 26.2978 22.07 27.07C22 28.36 22 28.74 22 32C22 35.26 22 35.64 22.07 36.93C22.0808 37.705 22.2228 38.4725 22.49 39.2C22.6898 39.7263 23.0001 40.2037 23.4 40.6C23.7982 41.0023 24.2794 41.3129 24.81 41.51C25.5326 41.7825 26.2978 41.9247 27.07 41.93C28.36 42 28.74 42 32 42C35.26 42 35.64 42 36.93 41.93C37.7022 41.9247 38.4674 41.7825 39.19 41.51C39.7206 41.3129 40.2018 41.0023 40.6 40.6C40.9999 40.2037 41.3102 39.7263 41.51 39.2C41.7823 38.4739 41.9244 37.7055 41.93 36.93C42 35.64 42 35.26 42 32C42 28.74 42 28.36 41.93 27.07ZM39.39 35.07C39.3579 35.6871 39.2262 36.295 39 36.87C38.8059 37.3497 38.5173 37.7854 38.1514 38.1514C37.7854 38.5173 37.3497 38.8059 36.87 39C36.2895 39.2136 35.6783 39.3318 35.06 39.35C34.27 39.35 34.06 39.35 32 39.35C29.94 39.35 29.73 39.35 28.94 39.35C28.3217 39.3318 27.7105 39.2136 27.13 39C26.6341 38.8157 26.1863 38.5217 25.82 38.14C25.4577 37.7813 25.1778 37.3479 25 36.87C24.7856 36.2901 24.6706 35.6782 24.66 35.06C24.66 34.27 24.66 34.06 24.66 32C24.66 29.94 24.66 29.73 24.66 28.94C24.6706 28.3218 24.7856 27.7099 25 27.13C25.1843 26.6341 25.4783 26.1863 25.86 25.82C26.2203 25.4596 26.6533 25.1801 27.13 25C27.7105 24.7864 28.3217 24.6682 28.94 24.65C29.73 24.65 29.94 24.65 32 24.65C34.06 24.65 34.27 24.65 35.06 24.65C35.6783 24.6682 36.2895 24.7864 36.87 25C37.3659 25.1843 37.8137 25.4783 38.18 25.86C38.5423 26.2187 38.8222 26.6521 39 27.13C39.2136 27.7105 39.3318 28.3217 39.35 28.94C39.35 29.73 39.35 29.94 39.35 32C39.35 34.06 39.42 34.27 39.39 35.06V35.07ZM37.79 27.63C37.6709 27.307 37.4832 27.0136 37.2398 26.7702C36.9964 26.5268 36.703 26.3391 36.38 26.22C35.9365 26.0663 35.4693 25.9918 35 26C34.22 26 34 26 32 26C30 26 29.78 26 29 26C28.5283 26.0046 28.0611 26.0926 27.62 26.26C27.3019 26.3737 27.0117 26.5537 26.7686 26.7882C26.5255 27.0227 26.3351 27.3062 26.21 27.62C26.0648 28.0654 25.9938 28.5316 26 29C26 29.78 26 30 26 32C26 34 26 34.22 26 35C26.0099 35.4712 26.0978 35.9375 26.26 36.38C26.3791 36.703 26.5668 36.9964 26.8102 37.2398C27.0536 37.4832 27.347 37.6709 27.67 37.79C28.0967 37.9469 28.5457 38.0347 29 38.05C29.78 38.05 30 38.05 32 38.05C34 38.05 34.22 38.05 35 38.05C35.4717 38.0454 35.9389 37.9574 36.38 37.79C36.703 37.6709 36.9964 37.4832 37.2398 37.2398C37.4832 36.9964 37.6709 36.703 37.79 36.38C37.9574 35.9389 38.0454 35.4717 38.05 35C38.05 34.22 38.05 34 38.05 32C38.05 30 38.05 29.78 38.05 29C38.0503 28.5278 37.9621 28.0597 37.79 27.62V27.63ZM32 35.82C31.4988 35.82 31.0026 35.7211 30.5397 35.529C30.0768 35.3369 29.6563 35.0554 29.3024 34.7005C28.9485 34.3457 28.668 33.9245 28.4771 33.4611C28.2863 32.9977 28.1887 32.5012 28.19 32C28.19 31.2441 28.4143 30.5051 28.8345 29.8767C29.2547 29.2483 29.8519 28.7587 30.5505 28.4698C31.2491 28.181 32.0177 28.1059 32.7589 28.2541C33.5002 28.4024 34.1808 28.7672 34.7147 29.3024C35.2485 29.8376 35.6116 30.5192 35.7578 31.2609C35.9041 32.0026 35.827 32.771 35.5363 33.4688C35.2457 34.1666 34.7545 34.7625 34.125 35.1811C33.4955 35.5996 32.7559 35.822 32 35.82ZM36 28.93C35.7789 28.9066 35.5744 28.8022 35.4257 28.637C35.277 28.4717 35.1947 28.2573 35.1947 28.035C35.1947 27.8127 35.277 27.5983 35.4257 27.433C35.5744 27.2678 35.7789 27.1634 36 27.14C36.2211 27.1634 36.4256 27.2678 36.5743 27.433C36.723 27.5983 36.8053 27.8127 36.8053 28.035C36.8053 28.2573 36.723 28.4717 36.5743 28.637C36.4256 28.8022 36.2211 28.9066 36 28.93Z" fill="black"/>
</svg>
