<svg width="64" height="64" viewBox="0 0 64 64" fill="none" xmlns="http://www.w3.org/2000/svg">
<circle cx="32" cy="32" r="31" fill="#FCFCFC" stroke="#1C1C1C" stroke-width="2"/>
<circle cx="31.9995" cy="32.0002" r="26.7221" fill="#FCFCFC" stroke="#1C1C1C" stroke-width="2"/>
<mask id="path-3-inside-1_50_1030" fill="white">
<path d="M56.8921 44.2017C55.5744 46.8899 53.83 49.3469 51.7267 51.4773L31.9995 32.0002L56.8921 44.2017Z"/>
</mask>
<path d="M56.8921 44.2017C55.5744 46.8899 53.83 49.3469 51.7267 51.4773L31.9995 32.0002L56.8921 44.2017Z" fill="#FCFCFC" stroke="#FCFCFC" stroke-width="4" mask="url(#path-3-inside-1_50_1030)"/>
<mask id="path-4-inside-2_50_1030" fill="white">
<path d="M6.98577 20.0498C8.27628 17.3485 9.99584 14.874 12.0776 12.7226L32 31.9999L6.98577 20.0498Z"/>
</mask>
<path d="M6.98577 20.0498C8.27628 17.3485 9.99584 14.874 12.0776 12.7226L32 31.9999L6.98577 20.0498Z" fill="#FCFCFC" stroke="#FCFCFC" stroke-width="4" mask="url(#path-4-inside-2_50_1030)"/>
<path d="M28.8505 31.5112C28.9511 31.5911 28.9513 31.7437 28.8511 31.8239L21.5437 37.6742C21.4128 37.779 21.2188 37.6858 21.2188 37.518V25.87C21.2188 25.7027 21.4119 25.6094 21.543 25.7133L25.8781 29.15L28.8505 31.5112Z" fill="#020202"/>
<path d="M25.7238 27.8328L22.5453 25.3114C22.3969 25.1936 22.4802 24.9547 22.6696 24.9547H41.3311C41.5206 24.9547 41.6039 25.1936 41.4554 25.3114L38.277 27.8328L33.9129 31.2922L32.1231 32.6828C32.0509 32.7389 31.9499 32.7389 31.8777 32.6828L30.0879 31.2922L25.7238 27.8328Z" fill="#020202"/>
<path d="M34.0692 32.3592C34.1422 32.3025 34.2446 32.3033 34.3168 32.3611L42.2193 38.6892C42.3669 38.8074 42.2833 39.0453 42.0943 39.0453H21.9057C21.7167 39.0453 21.6331 38.8074 21.7807 38.6892L29.6833 32.3609C29.7554 32.3032 29.8577 32.3023 29.9308 32.3589L31.7141 33.7391C31.7184 33.7434 31.7236 33.7467 31.729 33.7499C31.7415 33.7574 31.753 33.7666 31.7657 33.7739C31.9113 33.8572 32.0934 33.8572 32.239 33.7739C32.2517 33.7666 32.2632 33.7574 32.2757 33.7499C32.2811 33.7467 32.2863 33.7434 32.2906 33.7391L34.0692 32.3592Z" fill="#020202"/>
<path d="M42.457 25.7133C42.5881 25.6094 42.7812 25.7027 42.7812 25.87V37.518C42.7812 37.6858 42.5872 37.779 42.4563 37.6742L35.1489 31.8239C35.0487 31.7437 35.0489 31.5911 35.1495 31.5112L38.1219 29.15L42.457 25.7133Z" fill="#020202"/>
</svg>
