<svg width="64" height="64" viewBox="0 0 64 64" fill="none" xmlns="http://www.w3.org/2000/svg">
<circle cx="32" cy="32" r="31" fill="#FCFCFC" stroke="#1C1C1C" stroke-width="2"/>
<circle cx="31.9995" cy="32.0002" r="26.7221" fill="#FCFCFC" stroke="#1C1C1C" stroke-width="2"/>
<mask id="path-3-inside-1_53_30" fill="white">
<path d="M56.8921 44.2017C55.5744 46.8899 53.83 49.3469 51.7267 51.4773L31.9995 32.0002L56.8921 44.2017Z"/>
</mask>
<path d="M56.8921 44.2017C55.5744 46.8899 53.83 49.3469 51.7267 51.4773L31.9995 32.0002L56.8921 44.2017Z" fill="#FCFCFC" stroke="#FCFCFC" stroke-width="4" mask="url(#path-3-inside-1_53_30)"/>
<mask id="path-4-inside-2_53_30" fill="white">
<path d="M6.98577 20.0498C8.27628 17.3485 9.99584 14.874 12.0776 12.7226L32 31.9999L6.98577 20.0498Z"/>
</mask>
<path d="M6.98577 20.0498C8.27628 17.3485 9.99584 14.874 12.0776 12.7226L32 31.9999L6.98577 20.0498Z" fill="#FCFCFC" stroke="#FCFCFC" stroke-width="4" mask="url(#path-4-inside-2_53_30)"/>
<path d="M42 25.8C41.2483 26.1261 40.4534 26.3417 39.64 26.44C40.4982 25.9273 41.1413 25.1208 41.45 24.17C40.6436 24.6501 39.7608 24.9883 38.84 25.17C38.2245 24.5026 37.405 24.0583 36.5098 23.9068C35.6147 23.7554 34.6945 23.9054 33.8938 24.3332C33.093 24.761 32.4569 25.4425 32.0852 26.2708C31.7135 27.0991 31.6273 28.0274 31.84 28.91C30.2094 28.8275 28.6144 28.4029 27.1587 27.6639C25.7029 26.9248 24.4188 25.8877 23.39 24.62C23.0291 25.2502 22.8395 25.9638 22.84 26.69C22.8387 27.3644 23.0042 28.0286 23.3218 28.6236C23.6393 29.2185 24.099 29.7257 24.66 30.1C24.008 30.0823 23.3699 29.9073 22.8 29.59V29.64C22.8049 30.5849 23.136 31.4991 23.7373 32.228C24.3386 32.9568 25.1733 33.4556 26.1 33.64C25.7433 33.7486 25.3729 33.8058 25 33.81C24.7419 33.807 24.4844 33.7836 24.23 33.74C24.4939 34.5528 25.0046 35.2631 25.6911 35.7722C26.3775 36.2812 27.2056 36.5635 28.06 36.58C26.6172 37.7153 24.8359 38.3349 23 38.34C22.6657 38.3411 22.3317 38.3211 22 38.28C23.8744 39.4903 26.0588 40.1327 28.29 40.13C29.8297 40.146 31.3571 39.855 32.7831 39.2741C34.2091 38.6931 35.505 37.8339 36.5952 36.7465C37.6854 35.6591 38.548 34.3654 39.1326 32.9409C39.7172 31.5164 40.012 29.9897 40 28.45C40 28.28 40 28.1 40 27.92C40.7847 27.3348 41.4615 26.6174 42 25.8Z" fill="#273D75"/>
</svg>
